<svg width="120" height="18" viewBox="0 0 120 18" fill="none" xmlns="http://www.w3.org/2000/svg">
<path fill-rule="evenodd" clip-rule="evenodd" d="M14.4881 18.0001H0L24.9 0.000244141L14.4881 18.0001Z" fill="#A41715"/>
<path fill-rule="evenodd" clip-rule="evenodd" d="M15.5293 17.9999L26.1738 6.10352e-05H30.5269L20.1261 17.9999H15.5293Z" fill="#3F8CCA"/>
<path fill-rule="evenodd" clip-rule="evenodd" d="M20.9236 17.9999L31.5792 6.10352e-05H35.9323L25.5314 17.9999H20.9236Z" fill="#F7AE00"/>
<path fill-rule="evenodd" clip-rule="evenodd" d="M31.7786 17.9999L42.4342 6.10352e-05H46.7873L36.3864 17.9999H31.7786Z" fill="#1D8737"/>
<path fill-rule="evenodd" clip-rule="evenodd" d="M26.3843 17.9999L37.0399 6.10352e-05H41.3819L30.981 17.9999H26.3843Z" fill="#AB4EA4"/>
<g clip-path="url(#clip0_5135_2354)">
<path d="M53.4309 5.84424C54.3084 5.84424 55.0727 5.98788 55.7238 6.24644C56.3749 6.50499 56.9693 6.90719 57.4506 7.45303L56.2899 9.0331C55.8936 8.60217 55.4407 8.28616 54.9878 8.05633C54.5349 7.85523 53.997 7.74032 53.4026 7.74032C53.0629 7.74032 52.7798 7.76905 52.5533 7.85523C52.3269 7.94142 52.1853 8.0276 52.1004 8.17124C52.0155 8.31489 51.9589 8.45853 51.9589 8.6309C51.9589 8.832 52.0438 9.00437 52.242 9.14801C52.4118 9.29165 52.7232 9.40657 53.1478 9.49275L54.7047 9.83749C55.6389 10.0673 56.3183 10.3833 56.7429 10.7855C57.1675 11.2165 57.3939 11.7623 57.3939 12.4518C57.3939 13.1125 57.2241 13.6871 56.8844 14.1468C56.5447 14.6064 56.0918 14.9512 55.4973 15.181C54.9029 15.4108 54.2235 15.5257 53.4592 15.5257C52.8364 15.5257 52.242 15.4683 51.6758 15.3246C51.1096 15.181 50.6001 14.9799 50.1472 14.7213C49.6943 14.4628 49.298 14.2042 48.9866 13.8882L50.1472 12.2507C50.3736 12.538 50.685 12.7678 51.0247 12.9976C51.3644 13.1987 51.7324 13.3711 52.157 13.5147C52.5533 13.6297 52.9779 13.6871 53.4026 13.6871C53.7423 13.6871 53.997 13.6584 54.2235 13.6009C54.4499 13.5435 54.6198 13.4286 54.7047 13.3136C54.8179 13.17 54.8463 13.0264 54.8463 12.854C54.8463 12.6529 54.7896 12.4805 54.6481 12.3369C54.5066 12.1932 54.2518 12.0783 53.8555 11.9921L52.1287 11.6187C51.5909 11.5037 51.138 11.3314 50.7133 11.1303C50.317 10.9292 49.9773 10.6419 49.7509 10.2971C49.5244 9.95241 49.4112 9.52148 49.4112 8.97564C49.4112 8.37234 49.581 7.85523 49.8924 7.39558C50.2038 6.93592 50.685 6.56245 51.2795 6.30389C51.874 6.04534 52.5816 5.84424 53.4309 5.84424Z" fill="#212121"/>
<path d="M61.3004 5.98795V15.4396H58.8943V5.98795H61.3004ZM66.141 9.72265V11.6187H60.0549V9.72265H66.141ZM67.2733 5.98795V15.4396H64.8389V5.98795H67.2733Z" fill="#212121"/>
<path d="M68.3773 15.4396L71.6327 5.98795H74.5484L77.8038 15.4396H75.3127L73.501 9.3779L73.1047 7.88402H73.0481L72.6801 9.34918L70.8118 15.4396H68.3773ZM70.5004 13.285V11.6187H75.6807V13.285H70.5004Z" fill="#212121"/>
<path d="M83.3237 5.98795C84.4277 5.98795 85.3052 6.2465 85.8997 6.79234C86.5225 7.30945 86.8338 8.02767 86.8338 8.88952C86.8338 9.86629 86.5225 10.5845 85.928 11.1016C85.3052 11.6187 84.456 11.8486 83.352 11.8486L83.1255 11.9635H81.2572V15.4109H78.8794V5.98795H83.3237ZM82.984 10.2398C83.4652 10.2398 83.8049 10.1536 84.0314 9.95247C84.2578 9.75137 84.3711 9.46409 84.3711 9.03316C84.3711 8.63096 84.2578 8.31495 84.0314 8.14258C83.8049 7.94148 83.4369 7.8553 82.984 7.8553H81.2572V10.2398H82.984ZM84.3994 10.7569L87.3717 15.4396H84.6825L82.3329 11.3027L84.3994 10.7569Z" fill="#212121"/>
<path d="M91.0233 5.98795V15.4396H88.5889V5.98795H91.0233ZM97.0245 5.98795L92.6652 11.3027L92.5236 10.9292L90.3156 13.6584L89.8627 11.6762L94.3636 5.98795H97.0245ZM93.4578 9.11935L97.1944 15.4396H94.4486L91.6178 10.4983L93.4578 9.11935Z" fill="#212121"/>
<path d="M101.044 15.4396L104.328 5.98795H107.244L110.499 15.4396H108.008L106.196 9.3779L105.8 7.88402H105.772L105.404 9.34917L103.535 15.4396H101.044ZM103.167 13.285V11.6187H108.348V13.285H103.167Z" fill="#212121"/>
<path d="M115.679 15.4395V13.3711H111.15V11.8198C111.235 11.6761 111.348 11.475 111.49 11.2739C111.631 11.0441 111.801 10.8143 111.971 10.527L115 6.0166H117.831V11.7048H119.246V13.3998H117.831V15.4683H115.679V15.4395ZM113.075 11.6761H115.708V8.80326C115.708 8.60216 115.708 8.40106 115.708 8.19996C115.708 7.99887 115.736 7.79777 115.736 7.56794H115.708C115.623 7.76904 115.51 7.97014 115.368 8.19996C115.255 8.40106 115.113 8.60216 115 8.77453L113.358 11.2165C113.302 11.3026 113.273 11.3601 113.217 11.4176C113.188 11.5037 113.132 11.5899 113.075 11.6761Z" fill="#212121"/>
</g>
<defs>
<clipPath id="clip0_5135_2354">
<rect width="70.2596" height="9.73895" fill="white" transform="translate(48.9866 5.84424)"/>
</clipPath>
</defs>
</svg>
